PathFileType	4	(X/Y/Z)	C:\Users\Basilio\Documents\Thesis Gigler\squatting_fais\c3dfiles\076\SLS_front_pre3\markers_experimental.trc
DataRate	CameraRate	NumFrames	NumMarkers	Units	OrigDataRate	OrigDataStartFrame	OrigNumFrames
200.000000	200.000000	4	61	mm	200.000000	726	1453
Frame#	Time	FHD			LBHD			RBHD			C7			T10			CLAV			LSHO			LUUPA			LMUPA			LDUPA			LLEP			LMEP			LRAD			LUL			LRFIN			RSHO			RUPA1			RMUPA			RDUPA			RLEP			RMEP			RRAD			RUL			RUFIN			LASI			RASI			USACR			LSACR			RSACR			LTHI1			LTHI2			LTHI4			LLFC			LMFC			LTIB1			LTIB2			LTIB3			LTIB4			LLMAL			LMMAL			LHEE			LMT1			LMT2			LMT5			RTHI			RTHI2			RTHI3			RTHI4			RLFC			RMFC			RTIB1			RTIB2			RTIB3			RTIB4			RLMAL			RMMAL			RHEE			RMT1			RMT2			RMT5			LTHI3			
		X1	Y1	Z1	X2	Y2	Z2	X3	Y3	Z3	X4	Y4	Z4	X5	Y5	Z5	X6	Y6	Z6	X7	Y7	Z7	X8	Y8	Z8	X9	Y9	Z9	X10	Y10	Z10	X11	Y11	Z11	X12	Y12	Z12	X13	Y13	Z13	X14	Y14	Z14	X15	Y15	Z15	X16	Y16	Z16	X17	Y17	Z17	X18	Y18	Z18	X19	Y19	Z19	X20	Y20	Z20	X21	Y21	Z21	X22	Y22	Z22	X23	Y23	Z23	X24	Y24	Z24	X25	Y25	Z25	X26	Y26	Z26	X27	Y27	Z27	X28	Y28	Z28	X29	Y29	Z29	X30	Y30	Z30	X31	Y31	Z31	X32	Y32	Z32	X33	Y33	Z33	X34	Y34	Z34	X35	Y35	Z35	X36	Y36	Z36	X37	Y37	Z37	X38	Y38	Z38	X39	Y39	Z39	X40	Y40	Z40	X41	Y41	Z41	X42	Y42	Z42	X43	Y43	Z43	X44	Y44	Z44	X45	Y45	Z45	X46	Y46	Z46	X47	Y47	Z47	X48	Y48	Z48	X49	Y49	Z49	X50	Y50	Z50	X51	Y51	Z51	X52	Y52	Z52	X53	Y53	Z53	X54	Y54	Z54	X55	Y55	Z55	X56	Y56	Z56	X57	Y57	Z57	X58	Y58	Z58	X59	Y59	Z59	X60	Y60	Z60	X61	Y61	Z61	

727	3.63	-214.6903076171876	1419.679809570313	-1013.673095703125	-352.5680541992188	1349.728393554688	-1112.532592773438	-341.3048706054688	1354.304321289063	-960.830749511719	-400.4761962890626	1243.112548828125	-1028.803833007813	-515.5224609375001	954.0633544921877	-1031.866088867188	-281.9595642089844	1151.667724609375	-1037.447509765625	-331.1399536132813	1196.074462890625	-1192.608032226563	-191.8456573486328	1156.768676757813	-1279.500732421875	-157.3889770507813	1171.340454101563	-1247.56103515625	-126.7148056030274	1152.586303710938	-1297.016967773438	-76.92770385742189	1134.782836914063	-1312.781372070313	-65.45102691650392	1071.446533203125	-1265.494506835938	171.6565551757813	1167.930419921875	-1275.021850585938	165.738265991211	1168.37548828125	-1339.740356445313	251.7531433105469	1194.144409179688	-1282.289428710938	-318.8791809082032	1189.38427734375	-883.5613403320315	-187.0090789794922	1132.719360351563	-795.2546386718752	-156.4276580810547	1164.389526367188	-816.9721679687502	-117.1143569946289	1125.635620117188	-790.1551513671877	-49.87884521484376	1129.102905273438	-795.2092895507815	-45.76211166381837	1080.7890625	-854.3831787109377	194.6760864257813	1150.727783203125	-844.1179809570315	184.6626586914063	1143.67431640625	-778.7613525390627	268.1128540039063	1169.05712890625	-829.8599243164065	-390.1297607421876	765.7772827148439	-1135.46728515625	-394.8873901367189	767.7578125000001	-921.1729125976565	-551.9760131835939	838.6314697265627	-1027.688842773438	-562.0001831054689	810.7429809570315	-1058.03955078125	-564.4907836914064	807.0110473632815	-1000.9609375	-391.8343200683595	636.3171386718751	-1208.38671875	-314.0085144042969	602.6179809570314	-1202.210083007813	-299.0121765136719	543.9244995117189	-1191.994750976563	-197.1716308593751	428.9763183593751	-1153.454345703125	-192.5767822265626	444.2391662597657	-1041.2197265625	-209.6848449707032	303.9285278320313	-1053.664428710938	-247.6002807617188	247.0318298339844	-1111.56103515625	-222.7294921875001	248.9390411376954	-1070.013427734375	-275.3809509277344	197.8335113525391	-1030.404541015625	-376.0906982421876	105.6736602783203	-1073.354858398438	-350.1048583984376	121.1008453369141	-991.4522705078127	-441.0950927734376	95.87300872802736	-1024.27783203125	-239.1488647460938	51.54182815551759	-1003.435607910156	-233.2969512939454	49.42657852172853	-1042.3505859375	-257.7568969726563	43.99831771850587	-1092.664916992188	-328.0906982421876	568.6700439453126	-858.0689697265627	-261.3545532226563	565.1102294921876	-866.1773681640627	-244.0353698730469	592.3334350585939	-878.551452636719	-217.7581481933594	495.2948303222657	-882.5316162109377	-173.9010620117188	457.0205078125001	-889.0950317382815	-158.5424041748047	466.3233642578126	-1006.363525390625	-46.6284294128418	395.8469543457032	-911.6087036132815	-33.18315505981446	292.0825500488282	-880.4555664062502	-1.388420224189759	322.9443359375001	-895.1191406250002	39.80534362792969	300.6620788574219	-929.3895263671877	108.0632019042969	160.0115051269532	-893.2950439453127	102.8793563842774	182.982177734375	-975.3688964843752	89.15818786621095	97.79688262939456	-930.6602172851565	234.6105957031251	238.576400756836	-978.110778808594	235.5631408691407	252.5604705810547	-932.1958007812502	236.1364440917969	223.2501678466797	-876.9954223632815	-282.3281250000001	634.6741943359376	-1181.344970703125	
728	3.635	-214.4429168701172	1418.298706054688	-1013.7470703125	-352.8302917480469	1347.390747070313	-1112.828247070313	-341.2173767089844	1353.040405273438	-960.9196777343752	-400.325408935547	1241.784057617188	-1028.904052734375	-515.6864013671876	952.840270996094	-1031.823852539063	-281.8621520996094	1150.37353515625	-1037.501831054688	-331.6569824218751	1194.94482421875	-1192.996215820313	-191.8392791748047	1155.754638671875	-1279.498779296875	-157.2677459716797	1170.258056640625	-1247.52490234375	-126.8460464477539	1152.031616210938	-1297.36767578125	-76.65113830566408	1133.715942382813	-1312.801879882813	-65.04827880859376	1070.269775390625	-1265.298950195313	171.8149871826172	1167.13623046875	-1274.846801757813	165.962142944336	1167.380859375	-1339.5263671875	251.8488159179688	1193.38720703125	-1282.090087890625	-318.8593750000001	1188.246704101563	-883.6585693359377	-186.9187927246094	1131.547485351563	-795.2810668945315	-156.3382873535157	1163.350219726563	-816.9441528320315	-116.9611053466797	1124.690795898438	-790.2222900390627	-49.76514434814455	1128.1005859375	-795.2893066406252	-45.61708068847657	1079.844360351563	-854.5255126953127	194.6529083251954	1149.820678710938	-844.6021728515627	184.7539978027344	1142.773559570313	-778.839782714844	268.2489318847657	1168.251220703125	-829.9800415039065	-390.4851989746095	764.5780639648439	-1135.375122070313	-395.229217529297	766.5432739257814	-920.969421386719	-552.0676269531251	837.665954589844	-1027.71728515625	-562.2686157226564	809.6314086914065	-1058.019653320313	-564.6161499023439	805.9667968750002	-1001.070434570313	-391.9924316406251	635.5713500976564	-1208.417602539063	-313.9600219726563	601.8205566406251	-1201.789184570313	-298.7757873535157	543.3193969726564	-1192.0859375	-196.4687652587891	428.6099853515626	-1153.226928710938	-193.2253875732422	443.987030029297	-1040.975952148438	-209.4763183593751	303.7770080566407	-1053.530151367188	-247.3550415039063	246.6758117675782	-1111.14794921875	-222.4650268554688	248.7457885742188	-1069.801391601563	-275.2853088378907	197.7732086181641	-1030.180297851563	-375.9738464355469	105.7060852050782	-1073.3037109375	-350.1468505859376	121.0710067749024	-991.3377685546877	-440.8787841796876	95.79267883300783	-1024.164428710938	-239.0953674316407	51.57796478271486	-1003.418029785156	-233.3684692382813	49.4580535888672	-1042.33740234375	-257.1679992675782	43.71797561645509	-1092.429321289063	-328.3218078613282	567.5507812500001	-857.9561157226565	-261.6435241699219	563.8467407226564	-866.0310668945315	-244.3484191894532	591.2661132812501	-878.5460205078127	-217.9243774414063	494.2904052734376	-882.5996704101565	-173.9936065673828	456.0136108398439	-889.1241455078127	-158.6670989990235	465.4484863281251	-1006.281616210938	-46.58171844482423	395.095184326172	-911.5964355468752	-33.09814453125001	291.3028564453126	-880.4335937500002	-1.219400048255921	322.3253784179688	-894.9963378906252	39.91994094848634	300.0863952636719	-929.525329589844	108.3338470458985	159.3555908203125	-893.217956542969	103.447265625	182.4552612304688	-974.9305419921877	89.5404510498047	97.14552307128909	-930.509460449219	234.7470397949219	238.1188659667969	-978.0217895507815	235.6684875488282	252.0883178710938	-932.1033935546877	236.3297424316407	222.8400421142579	-877.1101074218752	-282.2914428710938	634.1010742187501	-1181.16943359375	
729	3.64	-214.4056701660157	1417.115234375	-1013.80322265625	-352.7044372558594	1346.393432617188	-1112.350708007813	-341.1705322265626	1351.6767578125	-960.970153808594	-400.1659240722657	1240.588256835938	-1028.97607421875	-515.8698120117189	951.7384033203127	-1031.836791992188	-281.7125549316407	1148.981079101563	-1037.539306640625	-330.7167358398438	1193.531372070313	-1192.70068359375	-191.9504852294922	1154.638061523438	-1279.566284179688	-157.12646484375	1169.113159179688	-1247.53857421875	-126.5896911621094	1150.494995117188	-1297.076538085938	-76.54505157470705	1132.752685546875	-1312.636108398438	-64.89211273193361	1069.412353515625	-1265.153930664063	171.9909210205078	1166.390991210938	-1274.737670898438	166.0503082275391	1166.661865234375	-1339.412719726563	251.9574737548829	1192.651123046875	-1281.92529296875	-318.5957946777344	1187.0283203125	-883.7293701171877	-186.7537078857422	1130.6142578125	-795.331970214844	-156.1412200927735	1162.229614257813	-816.9846801757815	-116.9525146484375	1123.568603515625	-790.1384277343752	-49.63465881347658	1127.0888671875	-795.2696533203127	-45.49582290649415	1078.893432617188	-854.4981689453127	194.8590087890626	1148.880737304688	-844.6358032226565	184.9156951904297	1142.067749023438	-778.8601074218752	268.4623413085938	1167.444458007813	-830.1819458007815	-390.6639099121095	763.4093627929689	-1135.304931640625	-395.145233154297	765.6461791992189	-921.0607910156252	-552.3721923828126	836.639343261719	-1027.79736328125	-562.5445556640626	808.5230102539065	-1058.107666015625	-564.7244873046876	804.865661621094	-1001.176025390625	-392.3836669921876	634.6228027343751	-1208.589111328125	-314.4851379394532	601.3905639648439	-1201.916748046875	-298.6003417968751	542.7657470703126	-1192.026245117188	-195.8523559570313	428.1715698242189	-1152.908935546875	-193.8257293701172	443.7634582519532	-1040.642944335938	-209.2439117431641	303.5078125000001	-1053.330322265625	-247.0963592529297	246.3531799316407	-1110.8671875	-222.2479248046876	248.5536193847657	-1069.612915039063	-275.1911315917969	197.6315917968751	-1030.012451171875	-376.0049133300782	105.7506942749024	-1073.239624023438	-350.1559143066407	120.9922561645508	-991.2506103515627	-440.8960571289064	95.75307464599611	-1024.15869140625	-239.0717010498047	51.54629516601564	-1003.33154296875	-233.3569488525391	49.41921234130861	-1042.306030273438	-257.1775817871094	43.72998809814454	-1092.434692382813	-328.4618835449219	566.3724975585939	-857.8662109375002	-261.6772460937501	562.9666137695314	-866.0058593750002	-244.6581726074219	590.2063598632814	-878.472839355469	-218.1532745361329	493.2181091308595	-882.5329589843752	-174.1015625	455.1162109375001	-889.028015136719	-158.4122619628907	464.5715637207032	-1006.35400390625	-46.54322814941407	394.1378173828126	-911.4600830078127	-32.92606353759766	290.6557006835938	-880.4221801757815	-1.112606406211853	321.7283630371094	-894.9226684570315	39.96045303344727	299.3335876464844	-929.4443969726565	108.6255035400391	158.7722625732422	-893.1428222656252	103.6798706054688	181.868637084961	-974.9711914062502	89.9553909301758	96.5346374511719	-930.5541992187502	234.8427429199219	237.7427368164063	-977.8806152343752	235.8457946777344	251.6317291259766	-932.1418457031252	236.6292572021485	222.5552368164063	-877.1149902343752	-282.2830810546876	633.4740600585939	-1180.964233398438	
730	3.645	-214.2257537841797	1415.7119140625	-1013.796142578125	-352.4443664550782	1344.834350585938	-1113.014526367188	-341.0235290527344	1350.390625	-961.012634277344	-400.0479431152345	1239.310424804688	-1028.942016601563	-515.9680786132814	950.6856689453127	-1031.861083984375	-281.7651977539063	1147.593383789063	-1037.670654296875	-330.8637695312501	1192.256469726563	-1192.837768554688	-191.46337890625	1153.479248046875	-1279.46875	-156.9876251220703	1168.020751953125	-1247.53759765625	-126.2466735839844	1149.701293945313	-1297.188354492188	-76.30155181884767	1131.9189453125	-1312.693481445313	-64.88758850097658	1068.427124023438	-1265.301513671875	171.9825286865235	1165.5673828125	-1274.715454101563	166.2650604248047	1166.111938476563	-1339.334838867188	252.1157226562501	1191.8828125	-1281.788452148438	-318.5241699218751	1185.795776367188	-883.807556152344	-186.7137298583985	1129.380249023438	-795.3626098632815	-156.135726928711	1161.193603515625	-816.928161621094	-116.7687911987305	1122.505737304688	-790.1683349609377	-49.53199386596681	1126.092895507813	-795.2713012695315	-45.33988189697266	1077.72265625	-854.388854980469	195.0186614990235	1148.1171875	-844.4368896484377	185.0655059814453	1141.24560546875	-778.9683227539065	268.3821411132813	1166.13818359375	-830.6911621093752	-390.810516357422	762.2417602539064	-1135.20849609375	-395.4427795410157	764.3697509765626	-920.8808593750002	-552.5334472656251	835.434020996094	-1027.7802734375	-562.7598876953126	807.5664672851565	-1058.131103515625	-565.0084228515626	803.6709594726565	-1001.163513183594	-392.3606567382814	633.7911987304689	-1208.363403320313	-314.5366516113282	600.8381958007814	-1201.853393554688	-298.4043579101563	542.3349609375001	-1192.115844726563	-195.3029174804688	427.8862609863282	-1152.867431640625	-193.7301483154297	443.4151306152345	-1040.448120117188	-208.9364166259766	303.2899169921876	-1053.032470703125	-246.8850250244141	246.1018676757813	-1110.703857421875	-222.0346984863282	248.3403930664063	-1069.414916992188	-275.1242675781251	197.5088500976563	-1029.722045898438	-376.0389404296876	105.7861938476563	-1073.161254882813	-350.1584777832032	120.9326171875	-991.1501464843752	-440.9162597656251	95.73847961425783	-1024.103271484375	-239.1223144531251	51.49485015869142	-1003.294555664063	-233.2971343994141	49.51494598388673	-1042.226928710938	-257.7696533203126	44.06760406494141	-1092.541381835938	-328.7009277343751	565.3809204101564	-857.8629150390627	-261.9924621582032	561.8463745117189	-865.7891845703127	-244.7868347167969	589.1473999023439	-878.231140136719	-218.1569061279297	492.1871337890626	-882.504333496094	-174.0779876708985	454.276580810547	-889.0305786132815	-158.1733551025391	463.7557678222657	-1006.257507324219	-46.51559066772462	393.3992309570314	-911.3758544921877	-32.8363151550293	289.8534851074219	-880.3607177734377	-1.067363023757935	320.9592895507813	-894.9472656250002	40.06450271606446	298.6329345703126	-929.3330688476565	108.9112014770508	158.1841125488282	-893.1180419921877	103.9953308105469	181.5365753173828	-975.8571777343752	90.21717071533205	96.07647705078128	-930.2437133789065	235.0670013427735	237.3907775878907	-978.0779418945315	236.1335601806641	251.2716979980469	-931.8249511718752	236.9722442626954	222.0440673828126	-877.2565917968752	-282.4013366699219	632.9509887695314	-1180.9306640625	
